<svg width="255" height="104" viewBox="0 0 255 104" fill="none" xmlns="http://www.w3.org/2000/svg">
<g filter="url(#filter0_d_1_3009)">
<rect x="60" y="30" width="160" height="44" rx="10" fill="url(#paint0_linear_1_3009)"/>
<rect x="61" y="31" width="158" height="42" rx="9" stroke="url(#paint1_linear_1_3009)" stroke-opacity="0.6" stroke-width="2" style="mix-blend-mode:overlay"/>
</g>
<path d="M105.41 55.87H101.045L100.295 58H98.51L102.245 47.56H104.225L107.96 58H106.16L105.41 55.87ZM104.93 54.475L103.235 49.63L101.525 54.475H104.93ZM108.714 53.83C108.714 53 108.884 52.265 109.224 51.625C109.574 50.985 110.044 50.49 110.634 50.14C111.234 49.78 111.899 49.6 112.629 49.6C113.169 49.6 113.699 49.72 114.219 49.96C114.749 50.19 115.169 50.5 115.479 50.89V46.9H117.204V58H115.479V56.755C115.199 57.155 114.809 57.485 114.309 57.745C113.819 58.005 113.254 58.135 112.614 58.135C111.894 58.135 111.234 57.955 110.634 57.595C110.044 57.225 109.574 56.715 109.224 56.065C108.884 55.405 108.714 54.66 108.714 53.83ZM115.479 53.86C115.479 53.29 115.359 52.795 115.119 52.375C114.889 51.955 114.584 51.635 114.204 51.415C113.824 51.195 113.414 51.085 112.974 51.085C112.534 51.085 112.124 51.195 111.744 51.415C111.364 51.625 111.054 51.94 110.814 52.36C110.584 52.77 110.469 53.26 110.469 53.83C110.469 54.4 110.584 54.9 110.814 55.33C111.054 55.76 111.364 56.09 111.744 56.32C112.134 56.54 112.544 56.65 112.974 56.65C113.414 56.65 113.824 56.54 114.204 56.32C114.584 56.1 114.889 55.78 115.119 55.36C115.359 54.93 115.479 54.43 115.479 53.86ZM118.58 53.83C118.58 53 118.75 52.265 119.09 51.625C119.44 50.985 119.91 50.49 120.5 50.14C121.1 49.78 121.765 49.6 122.495 49.6C123.035 49.6 123.565 49.72 124.085 49.96C124.615 50.19 125.035 50.5 125.345 50.89V46.9H127.07V58H125.345V56.755C125.065 57.155 124.675 57.485 124.175 57.745C123.685 58.005 123.12 58.135 122.48 58.135C121.76 58.135 121.1 57.955 120.5 57.595C119.91 57.225 119.44 56.715 119.09 56.065C118.75 55.405 118.58 54.66 118.58 53.83ZM125.345 53.86C125.345 53.29 125.225 52.795 124.985 52.375C124.755 51.955 124.45 51.635 124.07 51.415C123.69 51.195 123.28 51.085 122.84 51.085C122.4 51.085 121.99 51.195 121.61 51.415C121.23 51.625 120.92 51.94 120.68 52.36C120.45 52.77 120.335 53.26 120.335 53.83C120.335 54.4 120.45 54.9 120.68 55.33C120.92 55.76 121.23 56.09 121.61 56.32C122 56.54 122.41 56.65 122.84 56.65C123.28 56.65 123.69 56.54 124.07 56.32C124.45 56.1 124.755 55.78 124.985 55.36C125.225 54.93 125.345 54.43 125.345 53.86ZM134.607 51.13V55.705C134.607 56.015 134.677 56.24 134.817 56.38C134.967 56.51 135.217 56.575 135.567 56.575H136.617V58H135.267C134.497 58 133.907 57.82 133.497 57.46C133.087 57.1 132.882 56.515 132.882 55.705V51.13H131.907V49.735H132.882V47.68H134.607V49.735H136.617V51.13H134.607ZM141.479 58.135C140.699 58.135 139.994 57.96 139.364 57.61C138.734 57.25 138.239 56.75 137.879 56.11C137.519 55.46 137.339 54.71 137.339 53.86C137.339 53.02 137.524 52.275 137.894 51.625C138.264 50.975 138.769 50.475 139.409 50.125C140.049 49.775 140.764 49.6 141.554 49.6C142.344 49.6 143.059 49.775 143.699 50.125C144.339 50.475 144.844 50.975 145.214 51.625C145.584 52.275 145.769 53.02 145.769 53.86C145.769 54.7 145.579 55.445 145.199 56.095C144.819 56.745 144.299 57.25 143.639 57.61C142.989 57.96 142.269 58.135 141.479 58.135ZM141.479 56.65C141.919 56.65 142.329 56.545 142.709 56.335C143.099 56.125 143.414 55.81 143.654 55.39C143.894 54.97 144.014 54.46 144.014 53.86C144.014 53.26 143.899 52.755 143.669 52.345C143.439 51.925 143.134 51.61 142.754 51.4C142.374 51.19 141.964 51.085 141.524 51.085C141.084 51.085 140.674 51.19 140.294 51.4C139.924 51.61 139.629 51.925 139.409 52.345C139.189 52.755 139.079 53.26 139.079 53.86C139.079 54.75 139.304 55.44 139.754 55.93C140.214 56.41 140.789 56.65 141.479 56.65ZM150.185 52.765C150.185 51.745 150.42 50.83 150.89 50.02C151.37 49.21 152.015 48.58 152.825 48.13C153.645 47.67 154.54 47.44 155.51 47.44C156.62 47.44 157.605 47.715 158.465 48.265C159.335 48.805 159.965 49.575 160.355 50.575H158.3C158.03 50.025 157.655 49.615 157.175 49.345C156.695 49.075 156.14 48.94 155.51 48.94C154.82 48.94 154.205 49.095 153.665 49.405C153.125 49.715 152.7 50.16 152.39 50.74C152.09 51.32 151.94 51.995 151.94 52.765C151.94 53.535 152.09 54.21 152.39 54.79C152.7 55.37 153.125 55.82 153.665 56.14C154.205 56.45 154.82 56.605 155.51 56.605C156.14 56.605 156.695 56.47 157.175 56.2C157.655 55.93 158.03 55.52 158.3 54.97H160.355C159.965 55.97 159.335 56.74 158.465 57.28C157.605 57.82 156.62 58.09 155.51 58.09C154.53 58.09 153.635 57.865 152.825 57.415C152.015 56.955 151.37 56.32 150.89 55.51C150.42 54.7 150.185 53.785 150.185 52.765ZM161.487 53.83C161.487 53 161.657 52.265 161.997 51.625C162.347 50.985 162.817 50.49 163.407 50.14C164.007 49.78 164.667 49.6 165.387 49.6C166.037 49.6 166.602 49.73 167.082 49.99C167.572 50.24 167.962 50.555 168.252 50.935V49.735H169.977V58H168.252V56.77C167.962 57.16 167.567 57.485 167.067 57.745C166.567 58.005 165.997 58.135 165.357 58.135C164.647 58.135 163.997 57.955 163.407 57.595C162.817 57.225 162.347 56.715 161.997 56.065C161.657 55.405 161.487 54.66 161.487 53.83ZM168.252 53.86C168.252 53.29 168.132 52.795 167.892 52.375C167.662 51.955 167.357 51.635 166.977 51.415C166.597 51.195 166.187 51.085 165.747 51.085C165.307 51.085 164.897 51.195 164.517 51.415C164.137 51.625 163.827 51.94 163.587 52.36C163.357 52.77 163.242 53.26 163.242 53.83C163.242 54.4 163.357 54.9 163.587 55.33C163.827 55.76 164.137 56.09 164.517 56.32C164.907 56.54 165.317 56.65 165.747 56.65C166.187 56.65 166.597 56.54 166.977 56.32C167.357 56.1 167.662 55.78 167.892 55.36C168.132 54.93 168.252 54.43 168.252 53.86ZM173.633 50.935C173.883 50.515 174.213 50.19 174.623 49.96C175.043 49.72 175.538 49.6 176.108 49.6V51.37H175.673C175.003 51.37 174.493 51.54 174.143 51.88C173.803 52.22 173.633 52.81 173.633 53.65V58H171.923V49.735H173.633V50.935ZM179.375 51.13V55.705C179.375 56.015 179.445 56.24 179.585 56.38C179.735 56.51 179.985 56.575 180.335 56.575H181.385V58H180.035C179.265 58 178.675 57.82 178.265 57.46C177.855 57.1 177.65 56.515 177.65 55.705V51.13H176.675V49.735H177.65V47.68H179.375V49.735H181.385V51.13H179.375Z" fill="white"/>
<defs>
<filter id="filter0_d_1_3009" x="0" y="0" width="280" height="164" filterUnits="userSpaceOnUse" color-interpolation-filters="sRGB">
<feFlood flood-opacity="0" result="BackgroundImageFix"/>
<feColorMatrix in="SourceAlpha" type="matrix" values="0 0 0 0 0 0 0 0 0 0 0 0 0 0 0 0 0 0 127 0" result="hardAlpha"/>
<feOffset dy="30"/>
<feGaussianBlur stdDeviation="30"/>
<feComposite in2="hardAlpha" operator="out"/>
<feColorMatrix type="matrix" values="0 0 0 0 0.101788 0 0 0 0 0.122502 0 0 0 0 0.170833 0 0 0 1 0"/>
<feBlend mode="normal" in2="BackgroundImageFix" result="effect1_dropShadow_1_3009"/>
<feBlend mode="normal" in="SourceGraphic" in2="effect1_dropShadow_1_3009" result="shape"/>
</filter>
<linearGradient id="paint0_linear_1_3009" x1="68" y1="30" x2="78.4584" y2="103.752" gradientUnits="userSpaceOnUse">
<stop stop-color="#34C8E8"/>
<stop offset="1" stop-color="#4E4AF2"/>
</linearGradient>
<linearGradient id="paint1_linear_1_3009" x1="60" y1="30" x2="68.2621" y2="93.6854" gradientUnits="userSpaceOnUse">
<stop stop-color="white"/>
<stop offset="1"/>
</linearGradient>
</defs>
</svg>
